<?xml version="1.0" encoding="iso-8859-1"?>
<!-- Generator: Adobe Illustrator 19.0.0, SVG Export Plug-In . SVG Version: 6.00 Build 0)  -->
<svg version="1.1" id="Capa_1" xmlns="http://www.w3.org/2000/svg" xmlns:xlink="http://www.w3.org/1999/xlink" x="0px" y="0px"
	 viewBox="0 0 512.019 512.019" style="enable-background:new 0 0 512.019 512.019;" xml:space="preserve">
<g>
	<path style="fill:#E64C3C;" d="M490.59,322.86L366.165,447.197c-84.215,84.215-224.132,86.246-306.759,0.53
		c-80.295-83.462-79.039-215.831,2.825-297.754L190.011,22.281l75.123,75.123L139.561,222.976
		c-39.756,38.834-43.684,101.451-9.092,144.949c19.102,23.071,47.035,37.031,76.953,38.459c29.918,1.428,59.054-9.809,80.266-30.956
		l127.779-127.691L490.59,322.86z"/>
	<g>
		<path style="fill:#D1D4D1;" d="M281.42,81.117l-25.07,25.07l-75.123-75.123l24.982-25.07c6.938-6.886,18.132-6.886,25.07,0
			l50.141,50.052C288.305,62.985,288.305,74.178,281.42,81.117z"/>
		<path style="fill:#D1D4D1;" d="M506.789,306.573l-24.982,25.07l-75.123-75.123l24.982-25.07c3.313-3.347,7.826-5.23,12.535-5.23
			s9.223,1.883,12.535,5.23l50.052,50.052c3.347,3.312,5.231,7.826,5.231,12.535C512.019,298.747,510.136,303.261,506.789,306.573z"
			/>
	</g>
	<polygon style="fill:#F0C419;" points="511.997,134.965 447.07,73.101 510.178,11.282 321.577,52.851 386.495,114.715 
		323.395,176.543 	"/>
</g>
<g>
</g>
<g>
</g>
<g>
</g>
<g>
</g>
<g>
</g>
<g>
</g>
<g>
</g>
<g>
</g>
<g>
</g>
<g>
</g>
<g>
</g>
<g>
</g>
<g>
</g>
<g>
</g>
<g>
</g>
</svg>
